<svg xmlns="http://www.w3.org/2000/svg" version="1.1" xmlns:xlink="http://www.w3.org/1999/xlink" xmlns:svgjs="http://svgjs.com/svgjs" width="1500" height="1000" preserveAspectRatio="none" viewBox="0 0 1500 1000"><g mask="url(&quot;#SvgjsMask2130&quot;)" fill="none"><use xlink:href="#SvgjsG2137" transform="translate(0, 0)" fill="rgba(151, 188, 242, 0.4)"></use><use xlink:href="#SvgjsG2137" transform="translate(0, 858)" fill="rgba(151, 188, 242, 0.4)"></use><use xlink:href="#SvgjsG2137" transform="translate(858, 0)" fill="rgba(97, 112, 134, 0.705)"></use><use xlink:href="#SvgjsG2137" transform="translate(858, 858)" fill="rgba(96, 129, 174, 0.705)"></use></g><defs><mask id="SvgjsMask2130"><rect width="1500" height="1000" fill="#ffffff"></rect></mask><g id="SvgjsG2134"><path d="M6.633 1.305a1.305 1.305 0 1 0 2.611 0 1.305 1.305 0 1 0-2.611 0"></path><path d="M6.396 15.268a0.732 0.732 0 0 0 1.464 0l0-6.14h0.326l-0.002 6.14a0.732 0.732 0 0 0 1.464 0l0.003-10.585h0.321v3.901c0 0.785 1.024 0.785 1.021 0v-3.984c0-0.867-0.509-1.716-1.524-1.717l-2.926-0.001C5.619 2.882 5.04 3.636 5.04 4.576v4.008c0 0.779 1.029 0.779 1.029 0V4.683H6.397l-0.001 10.585z"></path></g><g id="SvgjsG2135"><path d="M8.221 6.211a0.931 0.931 0 0 1 1.171 0.604c0.156 0.489-0.114 1.013-0.604 1.171l-2.532 0.809a0.932 0.932 0 0 1-0.858-0.153l-1.047-0.819L6.625 16H0V5.61a1.111 1.111 0 0 1 1.111-1.111h1.657c0.236 0 0.454 0.075 0.633 0.215L6.158 6.87l2.063-0.659zM4.174 9.344h-1.005v-1.006h-1.199v1.006H0.969v1.203h1.001v1.001h1.199V10.547h1.005V9.344zM2.159 3.999c1.104 0 1.999-0.894 1.999-2C4.158 0.896 3.262 0 2.158 0S0.159 0.896 0.159 1.999c0 1.106 0.896 2 2 2m11.766 0.007c1.105 0 2.002-0.896 2.003-2.001C15.928 0.898 15.03 0 13.925 0c-1.106 0-2.003 0.898-2.002 2.005 0 1.105 0.896 2.002 2.002 2.001"></path><path d="M13.32 4.544c-0.819 0-1.191 0.28-1.502 0.766l-0.202 0.387-1.169-0.342 0.049-0.319-2.795-0.626-0.077 0.349-0.523-0.116 0.078-0.35-0.209-0.047-0.24 1.071 0.209 0.047 0.08-0.35 0.522 0.117-0.078 0.35 2.795 0.626 0.091-0.328 1.132 0.183-2.918 5.609a0.912 0.912 0 0 0 0.408 1.224c0.451 0.227 0.999 0.043 1.227-0.407l2.434-4.724h0.399v8.335h2.869V4.544H13.32z"></path></g><g id="SvgjsG2133"><path d="M8 14.66l5.904-5.908c1.836-1.836 1.8-4.512 0.132-6.174A4.268 4.268 0 0 0 8 2.58a4.264 4.264 0 0 0-6.03-0.02C0.3 4.24 0.26 6.92 2.1 8.744L8 14.66z"></path></g><g id="SvgjsG2132"><path d="M5.211 0h5.557v5.234H16v5.539H10.81V15.998h-5.578V10.773H0v-5.539h5.211z"></path></g><g id="SvgjsG2136"><path d="M7.713 15.485C3.459 15.485 0 12.025 0 7.768 0 3.513 3.459 0.051 7.713 0.051S15.432 3.513 15.432 7.768c0 4.257-3.465 7.716-7.719 7.717z m0-1.91c3.201 0 5.81-2.604 5.81-5.809 0-3.199-2.61-5.807-5.81-5.807-3.202 0-5.804 2.609-5.804 5.807-0.001 3.206 2.602 5.809 5.804 5.809z"></path><path d="M7.753 8.787a0.574 0.574 0 0 1-0.554-0.042 0.578 0.578 0 0 1-0.259-0.399L6.931 3.862a0.58 0.58 0 0 1 1.162 0v3.478l2.975-1.4a0.578 0.578 0 0 1 0.773 0.275c0.138 0.292 0.011 0.637-0.276 0.774l-3.81 1.798z"></path></g><g id="SvgjsG2131"><path d="M11.318 9.025V16h3.529V0H11.318v5.573h-6.589V0H1.2v16h3.529V9.025h6.589z"></path></g><g id="SvgjsG2137"><use xlink:href="#SvgjsG2131" transform="translate(0, 0) scale(2.6)" fill="rgba(97, 112, 134, 0.705)"></use><use xlink:href="#SvgjsG2132" transform="translate(0, 85.8) scale(2.6)" fill="rgba(97, 112, 134, 0.705)"></use><use xlink:href="#SvgjsG2133" transform="translate(0, 171.6) scale(2.6)" fill="rgba(151, 188, 242, 0.4)"></use><use xlink:href="#SvgjsG2132" transform="translate(0, 257.4) scale(2.6)" fill="rgba(96, 129, 174, 0.705)"></use><use xlink:href="#SvgjsG2134" transform="translate(0, 343.2) scale(2.6)" fill="rgba(96, 129, 174, 0.705)"></use><use xlink:href="#SvgjsG2132" transform="translate(0, 429) scale(2.6)" fill="rgba(96, 129, 174, 0.705)"></use><use xlink:href="#SvgjsG2132" transform="translate(0, 514.8) scale(2.6)" fill="rgba(151, 188, 242, 0.4)"></use><use xlink:href="#SvgjsG2132" transform="translate(0, 600.6) scale(2.6)" fill="rgba(97, 112, 134, 0.705)"></use><use xlink:href="#SvgjsG2133" transform="translate(0, 686.4) scale(2.6)" fill="rgba(96, 129, 174, 0.705)"></use><use xlink:href="#SvgjsG2135" transform="translate(0, 772.1999999999999) scale(2.6)" fill="rgba(97, 112, 134, 0.705)"></use><use xlink:href="#SvgjsG2135" transform="translate(85.8, 0) scale(2.6)" fill="rgba(96, 129, 174, 0.705)"></use><use xlink:href="#SvgjsG2133" transform="translate(85.8, 85.8) scale(2.6)" fill="rgba(151, 188, 242, 0.4)"></use><use xlink:href="#SvgjsG2134" transform="translate(85.8, 171.6) scale(2.6)" fill="rgba(96, 129, 174, 0.705)"></use><use xlink:href="#SvgjsG2132" transform="translate(85.8, 257.4) scale(2.6)" fill="rgba(96, 129, 174, 0.705)"></use><use xlink:href="#SvgjsG2132" transform="translate(85.8, 343.2) scale(2.6)" fill="rgba(97, 112, 134, 0.705)"></use><use xlink:href="#SvgjsG2135" transform="translate(85.8, 429) scale(2.6)" fill="rgba(151, 188, 242, 0.4)"></use><use xlink:href="#SvgjsG2132" transform="translate(85.8, 514.8) scale(2.6)" fill="rgba(97, 112, 134, 0.705)"></use><use xlink:href="#SvgjsG2133" transform="translate(85.8, 600.6) scale(2.6)" fill="rgba(151, 188, 242, 0.4)"></use><use xlink:href="#SvgjsG2134" transform="translate(85.8, 686.4) scale(2.6)" fill="rgba(96, 129, 174, 0.705)"></use><use xlink:href="#SvgjsG2135" transform="translate(85.8, 772.1999999999999) scale(2.6)" fill="rgba(96, 129, 174, 0.705)"></use><use xlink:href="#SvgjsG2131" transform="translate(171.6, 0) scale(2.6)" fill="rgba(97, 112, 134, 0.705)"></use><use xlink:href="#SvgjsG2131" transform="translate(171.6, 85.8) scale(2.6)" fill="rgba(96, 129, 174, 0.705)"></use><use xlink:href="#SvgjsG2134" transform="translate(171.6, 171.6) scale(2.6)" fill="rgba(96, 129, 174, 0.705)"></use><use xlink:href="#SvgjsG2133" transform="translate(171.6, 257.4) scale(2.6)" fill="rgba(97, 112, 134, 0.705)"></use><use xlink:href="#SvgjsG2135" transform="translate(171.6, 343.2) scale(2.6)" fill="rgba(151, 188, 242, 0.4)"></use><use xlink:href="#SvgjsG2133" transform="translate(171.6, 429) scale(2.6)" fill="rgba(151, 188, 242, 0.4)"></use><use xlink:href="#SvgjsG2131" transform="translate(171.6, 514.8) scale(2.6)" fill="rgba(96, 129, 174, 0.705)"></use><use xlink:href="#SvgjsG2133" transform="translate(171.6, 600.6) scale(2.6)" fill="rgba(151, 188, 242, 0.4)"></use><use xlink:href="#SvgjsG2133" transform="translate(171.6, 686.4) scale(2.6)" fill="rgba(96, 129, 174, 0.705)"></use><use xlink:href="#SvgjsG2133" transform="translate(171.6, 772.1999999999999) scale(2.6)" fill="rgba(96, 129, 174, 0.705)"></use><use xlink:href="#SvgjsG2136" transform="translate(257.4, 0) scale(2.6)" fill="rgba(151, 188, 242, 0.4)"></use><use xlink:href="#SvgjsG2136" transform="translate(257.4, 85.8) scale(2.6)" fill="rgba(151, 188, 242, 0.4)"></use><use xlink:href="#SvgjsG2131" transform="translate(257.4, 171.6) scale(2.6)" fill="rgba(151, 188, 242, 0.4)"></use><use xlink:href="#SvgjsG2133" transform="translate(257.4, 257.4) scale(2.6)" fill="rgba(97, 112, 134, 0.705)"></use><use xlink:href="#SvgjsG2136" transform="translate(257.4, 343.2) scale(2.6)" fill="rgba(97, 112, 134, 0.705)"></use><use xlink:href="#SvgjsG2133" transform="translate(257.4, 429) scale(2.6)" fill="rgba(97, 112, 134, 0.705)"></use><use xlink:href="#SvgjsG2132" transform="translate(257.4, 514.8) scale(2.6)" fill="rgba(151, 188, 242, 0.4)"></use><use xlink:href="#SvgjsG2135" transform="translate(257.4, 600.6) scale(2.6)" fill="rgba(97, 112, 134, 0.705)"></use><use xlink:href="#SvgjsG2131" transform="translate(257.4, 686.4) scale(2.6)" fill="rgba(96, 129, 174, 0.705)"></use><use xlink:href="#SvgjsG2135" transform="translate(257.4, 772.1999999999999) scale(2.6)" fill="rgba(151, 188, 242, 0.4)"></use><use xlink:href="#SvgjsG2132" transform="translate(343.2, 0) scale(2.6)" fill="rgba(97, 112, 134, 0.705)"></use><use xlink:href="#SvgjsG2132" transform="translate(343.2, 85.8) scale(2.6)" fill="rgba(97, 112, 134, 0.705)"></use><use xlink:href="#SvgjsG2131" transform="translate(343.2, 171.6) scale(2.6)" fill="rgba(97, 112, 134, 0.705)"></use><use xlink:href="#SvgjsG2131" transform="translate(343.2, 257.4) scale(2.6)" fill="rgba(97, 112, 134, 0.705)"></use><use xlink:href="#SvgjsG2135" transform="translate(343.2, 343.2) scale(2.6)" fill="rgba(151, 188, 242, 0.4)"></use><use xlink:href="#SvgjsG2133" transform="translate(343.2, 429) scale(2.6)" fill="rgba(97, 112, 134, 0.705)"></use><use xlink:href="#SvgjsG2132" transform="translate(343.2, 514.8) scale(2.6)" fill="rgba(151, 188, 242, 0.4)"></use><use xlink:href="#SvgjsG2136" transform="translate(343.2, 600.6) scale(2.6)" fill="rgba(97, 112, 134, 0.705)"></use><use xlink:href="#SvgjsG2134" transform="translate(343.2, 686.4) scale(2.6)" fill="rgba(96, 129, 174, 0.705)"></use><use xlink:href="#SvgjsG2136" transform="translate(343.2, 772.1999999999999) scale(2.6)" fill="rgba(97, 112, 134, 0.705)"></use><use xlink:href="#SvgjsG2135" transform="translate(429, 0) scale(2.6)" fill="rgba(96, 129, 174, 0.705)"></use><use xlink:href="#SvgjsG2134" transform="translate(429, 85.8) scale(2.6)" fill="rgba(96, 129, 174, 0.705)"></use><use xlink:href="#SvgjsG2136" transform="translate(429, 171.6) scale(2.6)" fill="rgba(97, 112, 134, 0.705)"></use><use xlink:href="#SvgjsG2131" transform="translate(429, 257.4) scale(2.6)" fill="rgba(97, 112, 134, 0.705)"></use><use xlink:href="#SvgjsG2131" transform="translate(429, 343.2) scale(2.6)" fill="rgba(151, 188, 242, 0.4)"></use><use xlink:href="#SvgjsG2132" transform="translate(429, 429) scale(2.6)" fill="rgba(151, 188, 242, 0.4)"></use><use xlink:href="#SvgjsG2135" transform="translate(429, 514.8) scale(2.6)" fill="rgba(97, 112, 134, 0.705)"></use><use xlink:href="#SvgjsG2135" transform="translate(429, 600.6) scale(2.6)" fill="rgba(97, 112, 134, 0.705)"></use><use xlink:href="#SvgjsG2136" transform="translate(429, 686.4) scale(2.6)" fill="rgba(96, 129, 174, 0.705)"></use><use xlink:href="#SvgjsG2131" transform="translate(429, 772.1999999999999) scale(2.6)" fill="rgba(151, 188, 242, 0.4)"></use><use xlink:href="#SvgjsG2132" transform="translate(514.8, 0) scale(2.6)" fill="rgba(151, 188, 242, 0.4)"></use><use xlink:href="#SvgjsG2131" transform="translate(514.8, 85.8) scale(2.6)" fill="rgba(151, 188, 242, 0.4)"></use><use xlink:href="#SvgjsG2136" transform="translate(514.8, 171.6) scale(2.6)" fill="rgba(97, 112, 134, 0.705)"></use><use xlink:href="#SvgjsG2133" transform="translate(514.8, 257.4) scale(2.6)" fill="rgba(96, 129, 174, 0.705)"></use><use xlink:href="#SvgjsG2136" transform="translate(514.8, 343.2) scale(2.6)" fill="rgba(97, 112, 134, 0.705)"></use><use xlink:href="#SvgjsG2133" transform="translate(514.8, 429) scale(2.6)" fill="rgba(97, 112, 134, 0.705)"></use><use xlink:href="#SvgjsG2136" transform="translate(514.8, 514.8) scale(2.6)" fill="rgba(97, 112, 134, 0.705)"></use><use xlink:href="#SvgjsG2133" transform="translate(514.8, 600.6) scale(2.6)" fill="rgba(151, 188, 242, 0.4)"></use><use xlink:href="#SvgjsG2131" transform="translate(514.8, 686.4) scale(2.6)" fill="rgba(151, 188, 242, 0.4)"></use><use xlink:href="#SvgjsG2133" transform="translate(514.8, 772.1999999999999) scale(2.6)" fill="rgba(97, 112, 134, 0.705)"></use><use xlink:href="#SvgjsG2132" transform="translate(600.6, 0) scale(2.6)" fill="rgba(96, 129, 174, 0.705)"></use><use xlink:href="#SvgjsG2132" transform="translate(600.6, 85.8) scale(2.6)" fill="rgba(97, 112, 134, 0.705)"></use><use xlink:href="#SvgjsG2133" transform="translate(600.6, 171.6) scale(2.6)" fill="rgba(96, 129, 174, 0.705)"></use><use xlink:href="#SvgjsG2136" transform="translate(600.6, 257.4) scale(2.6)" fill="rgba(151, 188, 242, 0.4)"></use><use xlink:href="#SvgjsG2135" transform="translate(600.6, 343.2) scale(2.6)" fill="rgba(97, 112, 134, 0.705)"></use><use xlink:href="#SvgjsG2136" transform="translate(600.6, 429) scale(2.6)" fill="rgba(97, 112, 134, 0.705)"></use><use xlink:href="#SvgjsG2132" transform="translate(600.6, 514.8) scale(2.6)" fill="rgba(151, 188, 242, 0.4)"></use><use xlink:href="#SvgjsG2135" transform="translate(600.6, 600.6) scale(2.6)" fill="rgba(97, 112, 134, 0.705)"></use><use xlink:href="#SvgjsG2136" transform="translate(600.6, 686.4) scale(2.6)" fill="rgba(151, 188, 242, 0.4)"></use><use xlink:href="#SvgjsG2132" transform="translate(600.6, 772.1999999999999) scale(2.6)" fill="rgba(96, 129, 174, 0.705)"></use><use xlink:href="#SvgjsG2136" transform="translate(686.4, 0) scale(2.6)" fill="rgba(96, 129, 174, 0.705)"></use><use xlink:href="#SvgjsG2134" transform="translate(686.4, 85.8) scale(2.6)" fill="rgba(96, 129, 174, 0.705)"></use><use xlink:href="#SvgjsG2132" transform="translate(686.4, 171.6) scale(2.6)" fill="rgba(96, 129, 174, 0.705)"></use><use xlink:href="#SvgjsG2131" transform="translate(686.4, 257.4) scale(2.6)" fill="rgba(97, 112, 134, 0.705)"></use><use xlink:href="#SvgjsG2134" transform="translate(686.4, 343.2) scale(2.6)" fill="rgba(151, 188, 242, 0.4)"></use><use xlink:href="#SvgjsG2133" transform="translate(686.4, 429) scale(2.6)" fill="rgba(151, 188, 242, 0.4)"></use><use xlink:href="#SvgjsG2136" transform="translate(686.4, 514.8) scale(2.6)" fill="rgba(96, 129, 174, 0.705)"></use><use xlink:href="#SvgjsG2135" transform="translate(686.4, 600.6) scale(2.6)" fill="rgba(97, 112, 134, 0.705)"></use><use xlink:href="#SvgjsG2135" transform="translate(686.4, 686.4) scale(2.6)" fill="rgba(151, 188, 242, 0.4)"></use><use xlink:href="#SvgjsG2136" transform="translate(686.4, 772.1999999999999) scale(2.6)" fill="rgba(96, 129, 174, 0.705)"></use><use xlink:href="#SvgjsG2132" transform="translate(772.1999999999999, 0) scale(2.6)" fill="rgba(151, 188, 242, 0.4)"></use><use xlink:href="#SvgjsG2133" transform="translate(772.1999999999999, 85.8) scale(2.6)" fill="rgba(97, 112, 134, 0.705)"></use><use xlink:href="#SvgjsG2135" transform="translate(772.1999999999999, 171.6) scale(2.6)" fill="rgba(151, 188, 242, 0.4)"></use><use xlink:href="#SvgjsG2136" transform="translate(772.1999999999999, 257.4) scale(2.6)" fill="rgba(96, 129, 174, 0.705)"></use><use xlink:href="#SvgjsG2133" transform="translate(772.1999999999999, 343.2) scale(2.6)" fill="rgba(96, 129, 174, 0.705)"></use><use xlink:href="#SvgjsG2134" transform="translate(772.1999999999999, 429) scale(2.6)" fill="rgba(151, 188, 242, 0.4)"></use><use xlink:href="#SvgjsG2135" transform="translate(772.1999999999999, 514.8) scale(2.6)" fill="rgba(97, 112, 134, 0.705)"></use><use xlink:href="#SvgjsG2131" transform="translate(772.1999999999999, 600.6) scale(2.6)" fill="rgba(151, 188, 242, 0.4)"></use><use xlink:href="#SvgjsG2136" transform="translate(772.1999999999999, 686.4) scale(2.6)" fill="rgba(97, 112, 134, 0.705)"></use><use xlink:href="#SvgjsG2134" transform="translate(772.1999999999999, 772.1999999999999) scale(2.6)" fill="rgba(151, 188, 242, 0.4)"></use></g></defs></svg>